<svg width="58" height="58" viewBox="0 0 58 58" fill="none" xmlns="http://www.w3.org/2000/svg">
<ellipse cx="28.9356" cy="28.6413" rx="28.5332" ry="28.6413" fill="#EEF6E0"/>
<g clip-path="url(#clip0_431_910)">
<path fill-rule="evenodd" clip-rule="evenodd" d="M24.4279 33.5737L21.6191 35.5162L25.7876 42.7634C26.0171 43.1625 26.5286 43.3001 26.9262 43.0697L28.427 42.1999C28.8246 41.9695 28.9617 41.4561 28.7321 41.057L24.4279 33.5737Z" fill="#FF8030" fill-opacity="0.34"/>
<path fill-rule="evenodd" clip-rule="evenodd" d="M26.929 27.2418C27.9192 28.9634 27.3262 31.1851 25.6112 32.179L18.7263 36.1691C17.0112 37.163 14.7979 36.5677 13.8077 34.8462C12.8176 33.1246 13.4106 30.9029 15.1256 29.909L22.0105 25.9189C23.7256 24.925 25.9389 25.5203 26.929 27.2418Z" fill="#FF8030" fill-opacity="0.34"/>
<path fill-rule="evenodd" clip-rule="evenodd" d="M34.4451 19.9675C35.6495 19.2695 37.1896 19.6837 37.885 20.8927C38.5804 22.1017 38.1677 23.6477 36.9632 24.3457C35.7588 25.0437 34.2187 24.6295 33.5233 23.4205C32.828 22.2115 33.2406 20.6655 34.4451 19.9675Z" fill="#FF8030" fill-opacity="0.34"/>
<path fill-rule="evenodd" clip-rule="evenodd" d="M20.4492 24.7191L16.1527 27.2091C15.3281 27.687 15.0438 28.7519 15.5199 29.5796L19.2085 35.9927C19.6846 36.8204 20.7454 37.1057 21.57 36.6278L25.8666 34.1378L39.2899 31.1644C39.6372 31.0577 39.8919 30.8212 40.025 30.482C40.1581 30.1428 40.1323 29.7954 39.9508 29.4797L31.5101 14.8047C31.3285 14.489 31.0417 14.2929 30.6825 14.239C30.3234 14.1851 29.9919 14.2883 29.7262 14.5369L20.4492 24.7191Z" fill="#ED8B00"/>
<path fill-rule="evenodd" clip-rule="evenodd" d="M29.4409 13.428C30.061 13.0686 30.8612 13.2838 31.2193 13.9063L40.5803 30.1815C40.9383 30.8039 40.7239 31.6072 40.1038 31.9665C39.4837 32.3258 38.6835 32.1106 38.3255 31.4882L28.9644 15.213C28.6064 14.5906 28.8208 13.7874 29.4409 13.428Z" fill="#0F8B3A"/>
<path fill-rule="evenodd" clip-rule="evenodd" d="M20.4492 24.7192L16.1527 27.2093C15.3281 27.6871 15.0438 28.752 15.5199 29.5798L19.2085 35.9928C19.6846 36.8206 20.7454 37.1059 21.57 36.628L25.8666 34.138C24.0608 30.9984 22.2552 27.8587 20.4492 24.7192Z" fill="#0F8B3A"/>
<path fill-rule="evenodd" clip-rule="evenodd" d="M42.6848 17.5371C42.9219 17.4003 43.2247 17.4824 43.361 17.7205C43.4973 17.9585 43.4155 18.2625 43.1783 18.3993L40.5308 19.9336C40.2936 20.0704 39.9909 19.9883 39.8546 19.7502C39.7182 19.5122 39.8001 19.2082 40.0372 19.0714L42.6848 17.5371ZM39.4582 14.6631L37.9321 17.3163C37.7948 17.5544 37.8757 17.8592 38.1129 17.9971C38.35 18.1349 38.6537 18.0537 38.791 17.8157L40.3171 15.1625C40.4544 14.9244 40.3735 14.6196 40.1364 14.4817C39.8992 14.3438 39.5956 14.4251 39.4582 14.6631ZM44.0457 21.6426C44.3204 21.6426 44.5431 21.8662 44.5431 22.142C44.5431 22.4178 44.3204 22.6414 44.0457 22.6414H40.9936C40.7188 22.6414 40.4961 22.4178 40.4961 22.142C40.4961 21.8662 40.7188 21.6426 40.9936 21.6426H44.0457Z" fill="#FFDA2D"/>
</g>
<defs>
<clipPath id="clip0_431_910">
<rect width="31.838" height="31.9586" fill="white" transform="translate(13.0176 12.2383)"/>
</clipPath>
</defs>
</svg>
