<svg width="33" height="32" viewBox="0 0 33 32" fill="none" xmlns="http://www.w3.org/2000/svg">
<path fill-rule="evenodd" clip-rule="evenodd" d="M6.29136 16.704C6.29136 21.6729 10.3342 25.715 15.3024 25.715C20.2709 25.715 24.3133 21.6729 24.3133 16.704C24.3133 11.7354 20.2709 7.69333 15.3024 7.69333C10.3342 7.69333 6.29136 11.7354 6.29136 16.704ZM32.7776 19.2884C32.7743 19.4101 32.7214 19.5304 32.6212 19.6154L29.4847 22.2913C29.2624 22.4804 28.9055 22.3976 28.7898 22.1289C28.7898 22.1281 27.1355 18.2777 27.1355 18.2777C27.0379 18.0529 27.1427 17.7928 27.3664 17.6963C27.5904 17.5994 27.8515 17.7031 27.9492 17.9279L29.1414 20.7043C30.4583 16.1561 29.4915 11.3173 26.485 7.61553C24.2586 4.87589 21.1134 3.05402 17.6303 2.48492C17.3886 2.44565 17.2251 2.21801 17.2643 1.97632C17.305 1.73499 17.5309 1.57182 17.7744 1.61072C21.4703 2.21441 24.8075 4.14938 27.1711 7.05759C30.2915 10.8958 31.3418 15.8867 30.0855 20.615L32.0471 18.9415C32.2337 18.7834 32.5128 18.805 32.6727 18.9908C32.7405 19.0708 32.775 19.1681 32.7776 19.2653V19.2884ZM15.3024 6.80725C20.7597 6.80725 25.1983 11.247 25.1983 16.704C25.1983 22.1613 20.7593 26.6 15.3024 26.6C9.8454 26.6 5.40636 22.1609 5.40636 16.704C5.40636 11.247 9.8454 6.80725 15.3024 6.80725ZM6.215 5.52172C1.38695 9.44424 -0.377648 15.9854 1.82062 21.7993C1.90743 22.0276 1.79036 22.283 1.56308 22.3695C1.51157 22.3893 1.45827 22.3983 1.40676 22.3983C1.22738 22.3983 1.05845 22.2891 0.990732 22.1123C-1.34081 15.9414 0.534005 8.99796 5.65526 4.83483C7.31647 3.4841 9.25 2.50257 11.3006 1.9457L8.86603 1.08304C8.63695 1.00127 8.51592 0.748056 8.59769 0.517892C8.67945 0.286647 8.93339 0.166341 9.16283 0.248466L13.0493 1.62765C13.1826 1.67484 13.2838 1.78182 13.3245 1.91689C13.3656 2.05124 13.3404 2.19712 13.2572 2.30986L10.7481 5.66904C10.6609 5.78574 10.5276 5.84697 10.3943 5.84697C10.3003 5.84697 10.2078 5.81816 10.1296 5.75873C9.93221 5.61285 9.89331 5.33478 10.0388 5.13919L11.8513 2.71076C9.8011 3.21647 7.86577 4.17891 6.215 5.52172ZM26.4551 25.8317C26.6114 25.6429 26.8905 25.6152 27.0789 25.7701C27.2691 25.925 27.2958 26.2041 27.1412 26.3928C26.4889 27.1882 25.7516 27.9212 24.9484 28.5735C22.2012 30.807 18.8265 32 15.3243 32C14.8676 32 14.4076 31.9795 13.9455 31.9384C10.3544 31.6178 7.05245 30.0697 4.52568 27.5534L4.99286 30.0856C5.03716 30.3258 4.87904 30.5567 4.63915 30.601C4.61069 30.6068 4.58404 30.6086 4.55738 30.6086C4.34775 30.6086 4.16297 30.4594 4.12371 30.2462L3.37378 26.1915C3.34893 26.0532 3.38963 25.9109 3.4858 25.8079C3.58161 25.7052 3.72209 25.6548 3.86076 25.671L8.02426 26.1634C8.26775 26.1915 8.44172 26.4119 8.41147 26.6551C8.38301 26.8975 8.16077 27.0743 7.92124 27.0426L4.91109 26.6871C10.0911 32.103 18.5016 32.6721 24.3904 27.8862C25.1472 27.2714 25.842 26.5801 26.4551 25.8317ZM11.6864 19.4825C11.6276 19.2455 11.7717 19.0049 12.0098 18.9462C12.2461 18.8867 12.486 19.0308 12.5465 19.2682C12.879 20.6016 14.2365 21.1772 15.4216 21.1408C16.1697 21.1228 17.1577 20.8837 17.6926 20.2652C17.9768 19.9367 18.087 19.5499 18.0301 19.0827C17.9004 18.0108 17.0403 17.4017 15.2404 17.1059C13.165 16.7656 12.0754 15.8521 12.0044 14.3904C11.9371 12.9968 12.9215 11.8266 14.4512 11.4793C14.5827 11.4491 14.7196 11.4286 14.86 11.4127V10.42C14.86 10.1754 15.0571 9.97697 15.3024 9.97697C15.5458 9.97697 15.745 10.1754 15.745 10.42V11.4084C16.9002 11.5312 18.0658 12.1633 18.6345 13.5159C18.7285 13.7414 18.6237 14.0007 18.3982 14.0954C18.1706 14.1905 17.913 14.0843 17.8172 13.8584C17.229 12.4562 15.763 12.0902 14.6472 12.3424C13.8014 12.5344 12.8329 13.1744 12.8898 14.3465C12.9377 15.3471 13.7535 15.9638 15.383 16.2307C16.1899 16.3632 18.6421 16.7659 18.9104 18.9754C18.9976 19.6846 18.8074 20.3311 18.3633 20.8444C17.7999 21.4949 16.8368 21.9163 15.7458 22.0057V22.9876C15.7458 23.2321 15.5469 23.4306 15.3031 23.4306C15.0578 23.4306 14.8608 23.2321 14.8608 22.9876V21.9988C13.4812 21.853 12.0808 21.0663 11.6864 19.4825Z" fill="black"/>
</svg>
