<svg width="32" height="32" viewBox="0 0 32 32" fill="none" xmlns="http://www.w3.org/2000/svg">
<path d="M6.66634 8.00065C4.79967 8.00065 3.33301 6.53398 3.33301 4.66732C3.33301 2.80065 4.79967 1.33398 6.66634 1.33398C8.53301 1.33398 9.99967 2.80065 9.99967 4.66732C9.99967 6.53398 8.53301 8.00065 6.66634 8.00065Z" fill="#FFB74D"/>
<path d="M1.33301 14.6673V20.0007L3.33301 21.334L3.99967 30.6673H9.33301L9.99967 21.334L11.9997 20.0007V14.6673C11.9997 11.734 9.59968 9.33398 6.66634 9.33398C3.73301 9.33398 1.33301 11.734 1.33301 14.6673Z" fill="#607D8B"/>
<path d="M14.933 26.932C14.533 28.5987 14.2663 29.332 13.333 29.332C12.933 29.332 12.533 28.9987 12.0663 28.5987C11.3997 28.0654 10.5997 27.332 9.33301 27.332V28.6654C10.0663 28.6654 10.5997 29.132 11.1997 29.5987C11.7997 30.0654 12.4663 30.6654 13.333 30.6654C15.3997 30.6654 15.8663 28.732 16.2663 27.1987C16.6663 25.4654 16.933 24.6654 17.9997 24.6654V23.332C15.7997 23.332 15.2663 25.3987 14.933 26.932Z" fill="#263238"/>
<path d="M9.59935 26.666H6.66602V29.3327H9.39935L9.59935 26.666Z" fill="#263238"/>
<path d="M23.9997 30.6673C27.6816 30.6673 30.6663 27.6825 30.6663 24.0007C30.6663 20.3188 27.6816 17.334 23.9997 17.334C20.3178 17.334 17.333 20.3188 17.333 24.0007C17.333 27.6825 20.3178 30.6673 23.9997 30.6673Z" fill="#4CAF50"/>
<path d="M23.3337 22.6676C23.4003 22.8009 23.4003 22.8676 23.5337 22.9342C23.6003 23.0009 23.7337 23.0676 23.867 23.2009C24.0003 23.2676 24.2003 23.3342 24.4003 23.4009C24.7337 23.5342 25.0003 23.6676 25.267 23.8009C25.5337 23.9342 25.7337 24.0676 25.9337 24.2676C26.1337 24.4676 26.267 24.6676 26.4003 24.8676C26.5337 25.1342 26.5337 25.4009 26.5337 25.7342C26.5337 26.0009 26.467 26.2676 26.4003 26.5342C26.3337 26.8009 26.2003 27.0009 26.0003 27.1342C25.8003 27.3342 25.6003 27.4676 25.4003 27.5342C25.1337 27.6676 24.867 27.7342 24.6003 27.7342V28.7342H23.8003V27.7342C23.5337 27.7342 23.267 27.6676 23.0003 27.5342C22.7337 27.4009 22.5337 27.2676 22.3337 27.1342C22.1337 26.9342 22.0003 26.7342 21.867 26.4009C21.7337 26.1342 21.667 25.8009 21.667 25.4009H23.1337C23.1337 25.6676 23.1337 25.8676 23.2003 26.0009C23.267 26.1342 23.3337 26.2676 23.467 26.4009C23.6003 26.4676 23.667 26.5342 23.8003 26.6009C23.9337 26.6676 24.067 26.6676 24.2003 26.6676C24.3337 26.6676 24.467 26.6676 24.6003 26.6009C24.7337 26.5342 24.8003 26.4676 24.867 26.4009C24.9337 26.3342 25.0003 26.2009 25.067 26.1342C25.1337 26.0009 25.1337 25.9342 25.1337 25.8009C25.1337 25.6676 25.1337 25.5342 25.067 25.4009C25.0003 25.2676 25.0003 25.2009 24.867 25.1342C24.8003 25.0676 24.667 24.9342 24.5337 24.8676C24.4003 24.8009 24.267 24.7342 24.067 24.6676C23.7337 24.5342 23.467 24.4009 23.2003 24.2676C22.9337 24.1342 22.7337 24.0009 22.5337 23.8009C22.3337 23.6009 22.2003 23.4009 22.067 23.2009C21.9337 22.9342 21.9337 22.6676 21.9337 22.3342C21.9337 22.0676 22.0003 21.8009 22.067 21.5342C22.1337 21.3342 22.267 21.0676 22.467 20.9342C22.667 20.7342 22.867 20.6009 23.067 20.5342C23.3337 20.4009 23.6003 20.3342 23.867 20.3342V19.2676H24.667V20.3342C24.9337 20.4009 25.2003 20.4676 25.467 20.6009C25.7337 20.7342 25.867 20.8676 26.067 21.0676C26.2003 21.2676 26.3337 21.4676 26.467 21.7342C26.5337 22.0009 26.6003 22.3342 26.6003 22.6676H25.1337C25.1337 22.2676 25.067 22.0009 24.867 21.8009C24.7337 21.6009 24.467 21.5342 24.2003 21.5342C24.067 21.5342 23.9337 21.5342 23.8003 21.6009C23.667 21.6676 23.6003 21.7342 23.5337 21.8009C23.4003 21.8009 23.3337 21.8676 23.3337 22.0009C23.3337 22.1342 23.267 22.2009 23.267 22.3342C23.267 22.4676 23.267 22.6009 23.3337 22.6676Z" fill="white"/>
</svg>
