<svg width="32" height="32" viewBox="0 0 32 32" fill="none" xmlns="http://www.w3.org/2000/svg">
<path d="M12.8 21H12.799C12.799 19.9888 12.866 20.4544 8.5465 9.65563C7.664 7.45 5.137 7.44563 4.253 9.65563C-0.103 20.5469 0.001 20.0206 0.001 21H0C0 23.7612 2.8655 26 6.4 26C9.9345 26 12.8 23.7612 12.8 21ZM6.4 11L10 20H2.8L6.4 11ZM31.999 21C31.999 19.9888 32.066 20.4544 27.7465 9.65563C26.864 7.45 24.337 7.44563 23.453 9.65563C19.097 20.5469 19.201 20.0206 19.201 21H19.2C19.2 23.7612 22.0655 26 25.6 26C29.1345 26 32 23.7612 32 21H31.999ZM22 20L25.6 11L29.2 20H22ZM26.4 28H17.6V9.57812C18.7755 8.935 19.658 7.61063 19.9195 6H26.4C26.842 6 27.2 5.5525 27.2 5V3C27.2 2.4475 26.842 2 26.4 2H19.182C18.452 0.7925 17.3045 0 16 0C14.6955 0 13.548 0.7925 12.818 2H5.6C5.158 2 4.8 2.4475 4.8 3V5C4.8 5.5525 5.158 6 5.6 6H12.0805C12.342 7.61 13.224 8.935 14.4 9.57812V28H5.6C5.158 28 4.8 28.4475 4.8 29V31C4.8 31.5525 5.158 32 5.6 32H26.4C26.842 32 27.2 31.5525 27.2 31V29C27.2 28.4475 26.842 28 26.4 28Z" fill="#241A3F"/>
</svg>
