<svg width="36" height="36" viewBox="0 0 36 36" fill="none" xmlns="http://www.w3.org/2000/svg">
<g clip-path="url(#clip0_445_982)">
<path d="M25.6869 24.2574C30.718 18.0153 30.9416 9.84793 26.1862 6.01508C21.4309 2.18223 13.4973 4.1353 8.46616 10.3774C3.435 16.6195 3.21143 24.7868 7.96679 28.6197C12.7222 32.4525 20.6557 30.4994 25.6869 24.2574Z" fill="#FCEA2B"/>
<path d="M26.0692 6.01486C24.1812 4.54418 21.8011 3.85343 19.4192 4.08486C21.2565 4.19778 23.0151 4.87139 24.4577 6.01486C29.2127 9.84786 28.9897 18.0149 23.9587 24.2569C20.8887 28.0659 16.7387 30.2739 12.8887 30.5489C17.1537 30.8684 22.0652 28.6044 25.5697 24.2569C30.6007 18.0149 30.8247 9.84736 26.0692 6.01486Z" fill="white"/>
<path d="M27.6752 6.54138C27.4248 6.33929 27.1648 6.14941 26.8962 5.97238C26.8783 5.9638 26.8599 5.95629 26.8412 5.94988C26.7551 5.90729 26.6588 5.88962 26.5632 5.89888C26.465 5.90878 26.3726 5.94997 26.2997 6.01638C26.2833 6.02696 26.2677 6.03848 26.2527 6.05088C26.2432 6.06088 26.2402 6.07438 26.2317 6.08488C26.2232 6.09538 26.2112 6.10188 26.2032 6.11338C26.1948 6.13126 26.1874 6.14963 26.1812 6.16838C26.138 6.25537 26.1203 6.35278 26.1302 6.44938C26.1345 6.48049 26.1416 6.51113 26.1517 6.54088C26.1692 6.6038 26.2018 6.66148 26.2467 6.70888C26.2574 6.72573 26.269 6.74193 26.2817 6.75738C30.4207 10.5754 29.9892 18.1254 25.2992 23.9449C20.4482 29.9624 12.8142 31.8849 8.28217 28.2314C8.2528 28.212 8.22146 28.1957 8.18867 28.1829L8.16117 28.1684C8.11339 28.1484 8.06279 28.1359 8.01117 28.1314L7.97117 28.1279C7.86445 28.1253 7.76016 28.16 7.67617 28.2259C7.6593 28.2346 7.64294 28.2443 7.62717 28.2549C7.61717 28.2634 7.61367 28.2754 7.60517 28.2849C7.59717 28.2934 7.58617 28.2974 7.57867 28.3064C7.57007 28.3211 7.56222 28.3363 7.55517 28.3519C7.53094 28.3869 7.51128 28.4249 7.49667 28.4649C7.49187 28.4808 7.48786 28.497 7.48467 28.5134C7.47294 28.562 7.46856 28.612 7.47167 28.6619L7.47617 28.6909C7.48352 28.7452 7.49974 28.7979 7.52417 28.8469L7.53767 28.8694C7.55253 28.9017 7.5708 28.9324 7.59217 28.9609C7.94427 29.35 8.32645 29.7108 8.73517 30.0399C10.6458 31.5511 13.0199 32.3557 15.4557 32.3174C19.7507 32.3174 24.4007 30.0774 27.7197 25.9599C32.9417 19.4814 32.9217 10.7699 27.6752 6.54138Z" fill="#F1B31C"/>
<path d="M26.6184 6.39062C26.8718 6.55762 27.1188 6.73796 27.3594 6.93162C32.3994 10.9936 32.3854 19.3731 27.3289 25.6466C22.2724 31.9201 14.0869 33.7141 9.04694 29.6521C8.6586 29.3395 8.29548 28.9968 7.96094 28.6271" stroke="black" stroke-miterlimit="10"/>
<path d="M25.6869 24.2593C30.718 18.0172 30.9416 9.84988 26.1862 6.01703C21.4309 2.18418 13.4973 4.13726 8.46616 10.3793C3.435 16.6214 3.21143 24.7888 7.96679 28.6216C12.7222 32.4545 20.6557 30.5014 25.6869 24.2593Z" stroke="black" stroke-miterlimit="10"/>
<path d="M25.6861 24.2587L27.3291 25.6462M23.9576 26.1312L25.4056 27.6877M22.1281 27.6532L23.3171 29.3142M20.1211 28.9922L21.0571 30.6642M27.0176 22.3887L28.7621 23.5957" stroke="black" stroke-miterlimit="10"/>
</g>
<defs>
<clipPath id="clip0_445_982">
<rect width="36" height="36" fill="white"/>
</clipPath>
</defs>
</svg>
