<svg width="43" height="42" viewBox="0 0 43 42" fill="none" xmlns="http://www.w3.org/2000/svg">
<path d="M13.0712 13.0463C17.8653 13.0463 21.7518 11.1031 21.7518 8.70601C21.7518 6.30894 17.8653 4.36572 13.0712 4.36572C8.27705 4.36572 4.39062 6.30894 4.39062 8.70601C4.39062 11.1031 8.27705 13.0463 13.0712 13.0463Z" stroke="#0F8B3A" stroke-width="3.47223" stroke-linecap="round" stroke-linejoin="round"/>
<path d="M4.39062 8.70703V14.7834C4.39062 17.1801 8.27692 19.1237 13.0712 19.1237C17.8655 19.1237 21.7518 17.1801 21.7518 14.7834V8.70703" stroke="#0F8B3A" stroke-width="3.47223" stroke-linecap="round" stroke-linejoin="round"/>
<path d="M4.39062 14.7827V20.8591C4.39062 23.2558 8.27692 25.1994 13.0712 25.1994C17.8655 25.1994 21.7518 23.2558 21.7518 20.8591V14.7827" stroke="#0F8B3A" stroke-width="3.47223" stroke-linecap="round" stroke-linejoin="round"/>
<path d="M4.39062 20.8604V26.9368C4.39062 29.3335 8.27692 31.277 13.0712 31.277C17.8655 31.277 21.7518 29.3335 21.7518 26.9368V20.8604" stroke="#0F8B3A" stroke-width="3.47223" stroke-linecap="round" stroke-linejoin="round"/>
<path d="M4.39062 26.9365V33.0129C4.39062 35.4096 8.27692 37.3532 13.0712 37.3532C17.8655 37.3532 21.7518 35.4096 21.7518 33.0129V26.9365" stroke="#0F8B3A" stroke-width="3.47223" stroke-linecap="round" stroke-linejoin="round"/>
<path d="M30.4306 25.1996C35.2247 25.1996 39.1112 23.2564 39.1112 20.8593C39.1112 18.4623 35.2247 16.519 30.4306 16.519C25.6364 16.519 21.75 18.4623 21.75 20.8593C21.75 23.2564 25.6364 25.1996 30.4306 25.1996Z" stroke="#0F8B3A" stroke-width="3.47223" stroke-linecap="round" stroke-linejoin="round"/>
<path d="M21.75 20.8604V26.9368C21.75 29.3335 25.6363 31.277 30.4306 31.277C35.2249 31.277 39.1112 29.3335 39.1112 26.9368V20.8604" stroke="#0F8B3A" stroke-width="3.47223" stroke-linecap="round" stroke-linejoin="round"/>
<path d="M21.75 26.9365V33.0129C21.75 35.4096 25.6363 37.3532 30.4306 37.3532C35.2249 37.3532 39.1112 35.4096 39.1112 33.0129V26.9365" stroke="#0F8B3A" stroke-width="3.47223" stroke-linecap="round" stroke-linejoin="round"/>
</svg>
