<svg width="57" height="58" viewBox="0 0 57 58" fill="none" xmlns="http://www.w3.org/2000/svg">
<ellipse cx="28.4684" cy="28.6413" rx="28.4684" ry="28.6413" fill="#EEF6E0"/>
<path d="M28 12C24.6377 12 21.3509 12.997 18.5553 14.865C15.7597 16.733 13.5807 19.388 12.2941 22.4944C11.0074 25.6007 10.6707 29.0189 11.3267 32.3165C11.9826 35.6142 13.6017 38.6433 15.9792 41.0208C18.3567 43.3983 21.3858 45.0174 24.6835 45.6734C27.9812 46.3293 31.3993 45.9926 34.5056 44.706C37.612 43.4193 40.267 41.2403 42.135 38.4447C44.003 35.6491 45 32.3623 45 29C45 26.7675 44.5603 24.5569 43.706 22.4944C42.8516 20.4318 41.5994 18.5578 40.0208 16.9792C38.4422 15.4006 36.5682 14.1484 34.5056 13.294C32.4431 12.4397 30.2325 12 28 12ZM28 42.6C25.3102 42.6 22.6808 41.8024 20.4443 40.308C18.2077 38.8136 16.4646 36.6896 15.4352 34.2045C14.4059 31.7194 14.1366 28.9849 14.6613 26.3468C15.1861 23.7086 16.4814 21.2853 18.3834 19.3833C20.2853 17.4814 22.7086 16.1861 25.3468 15.6613C27.9849 15.1366 30.7194 15.4059 33.2045 16.4352C35.6896 17.4646 37.8136 19.2077 39.308 21.4442C40.8024 23.6808 41.6 26.3102 41.6 29C41.6 32.6069 40.1672 36.0662 37.6167 38.6167C35.0662 41.1671 31.607 42.6 28 42.6Z" fill="#0F8B3A"/>
<path d="M29.7008 25.5996H26.3008V39.1996H29.7008V25.5996Z" fill="#0F8B3A"/>
<path d="M29.7008 18.7998H26.3008V22.1998H29.7008V18.7998Z" fill="#0F8B3A"/>
</svg>
