<svg width="42" height="42" viewBox="0 0 42 42" fill="none" xmlns="http://www.w3.org/2000/svg">
<path d="M33.1985 32.747H9.41862V14.0628H33.1985M28.1028 2.17285V5.56998H14.5143V2.17285H11.1172V5.56998H9.41862C7.53321 5.56998 6.02148 7.08171 6.02148 8.96711V32.747C6.02148 33.648 6.3794 34.5121 7.01648 35.1492C7.65357 35.7863 8.51764 36.1442 9.41862 36.1442H33.1985C34.0995 36.1442 34.9636 35.7863 35.6007 35.1492C36.2378 34.5121 36.5957 33.648 36.5957 32.747V8.96711C36.5957 8.06614 36.2378 7.20207 35.6007 6.56498C34.9636 5.92789 34.0995 5.56998 33.1985 5.56998H31.5V2.17285M29.8014 20.8571H21.3086V29.3499H29.8014V20.8571Z" fill="#0F8B3A"/>
</svg>
