<svg width="38" height="37" viewBox="0 0 38 37" fill="none" xmlns="http://www.w3.org/2000/svg">
<path d="M31.7558 6.10676L35.5466 6.86446C35.7502 6.90518 35.9175 7.05446 35.9763 7.25576C36.006 7.35354 36.0087 7.45755 35.984 7.55672C35.9593 7.65589 35.9082 7.74651 35.8361 7.81895L32.7306 10.9267C32.3591 11.2975 31.8556 11.5058 31.3306 11.5057H28.7544L22.2856 17.9767C22.409 18.4427 22.4317 18.9296 22.3522 19.4051C22.2727 19.8805 22.0927 20.3336 21.8244 20.734C21.556 21.1345 21.2054 21.4731 20.7959 21.7274C20.3864 21.9818 19.9274 22.1459 19.4495 22.2089C18.9716 22.2719 18.4858 22.2324 18.0243 22.0929C17.5629 21.9534 17.1365 21.7172 16.7735 21.4C16.4105 21.0828 16.1193 20.6919 15.9192 20.2534C15.7192 19.8148 15.6149 19.3386 15.6133 18.8566C15.6136 18.3361 15.7336 17.8227 15.964 17.356C16.1944 16.8893 16.529 16.4818 16.942 16.1651C17.3549 15.8483 17.8352 15.6307 18.3456 15.5291C18.8561 15.4275 19.3831 15.4447 19.8858 15.5792L26.3569 9.10592V6.53424C26.3569 6.0095 26.565 5.50512 26.9359 5.13418L30.0436 2.02646C30.1161 1.95437 30.2067 1.90326 30.3059 1.87857C30.405 1.85388 30.509 1.85652 30.6068 1.88622C30.8081 1.94503 30.9574 2.1124 30.9981 2.31597L31.7558 6.10676Z" fill="#0F8B3A"/>
<path d="M5.44205 18.8564C5.44437 20.797 5.86285 22.7145 6.66924 24.4795C7.47562 26.2446 8.65118 27.8162 10.1166 29.0883C11.582 30.3604 13.3032 31.3035 15.1641 31.8538C17.0249 32.4042 18.9822 32.549 20.9038 32.2787C22.8254 32.0083 24.6667 31.3289 26.3034 30.2864C27.9402 29.2439 29.3343 27.8625 30.3918 26.2354C31.4492 24.6083 32.1455 22.7733 32.4335 20.8543C32.7215 18.9352 32.5945 16.9767 32.0613 15.1109C31.9864 14.8929 31.9567 14.662 31.9739 14.4321C31.9912 14.2023 32.055 13.9783 32.1615 13.774C32.2681 13.5696 32.4151 13.389 32.5936 13.2433C32.7722 13.0975 32.9785 12.9896 33.2001 12.9261C33.4217 12.8627 33.6538 12.845 33.8825 12.8741C34.1111 12.9032 34.3314 12.9786 34.53 13.0956C34.7286 13.2126 34.9013 13.3688 35.0376 13.5547C35.1739 13.7405 35.2709 13.9522 35.3228 14.1768C36.3554 17.7901 36.1592 21.6439 34.7652 25.1337C33.3711 28.6235 30.8579 31.5518 27.62 33.4591C24.3821 35.3665 20.6026 36.145 16.8745 35.6725C13.1464 35.2001 9.68055 33.5033 7.02079 30.8485C4.36394 28.1895 2.6654 24.7233 2.19184 20.9943C1.71828 17.2653 2.49653 13.4847 4.40438 10.2459C6.31224 7.00712 9.24168 4.49364 12.7328 3.10009C16.2238 1.70654 20.0789 1.51183 23.6926 2.54653C24.1229 2.67232 24.4859 2.96331 24.7023 3.35593C24.9187 3.74854 24.9708 4.21085 24.8474 4.64182C24.724 5.07279 24.435 5.43738 24.0435 5.65591C23.6521 5.87444 23.1901 5.92914 22.7585 5.80806C20.7377 5.22828 18.6099 5.12582 16.5428 5.50875C14.4757 5.89168 12.5258 6.74953 10.8469 8.01468C9.16788 9.27983 7.80574 10.9177 6.86781 12.7991C5.92987 14.6806 5.4418 16.7542 5.44205 18.8564Z" fill="#0F8B3A"/>
<path d="M12.22 18.8568C12.2201 20.093 12.5578 21.3058 13.1965 22.3643C13.8353 23.4228 14.7509 24.2868 15.8447 24.8631C16.9384 25.4394 18.1687 25.7061 19.4029 25.6346C20.6372 25.563 21.8284 25.1559 22.8482 24.457C23.8678 23.7564 24.6765 22.7903 25.1868 21.6634C25.697 20.5364 25.8895 19.2913 25.7433 18.0629C25.7038 17.7648 25.7444 17.4615 25.861 17.1843C25.9777 16.9071 26.1661 16.6661 26.4068 16.4859C26.6476 16.3057 26.932 16.193 27.2308 16.1593C27.5297 16.1256 27.8321 16.1721 28.1069 16.2941C28.3817 16.4146 28.6196 16.6057 28.7965 16.8481C28.9733 17.0905 29.0826 17.3754 29.1134 17.6738C29.3592 19.773 28.9454 21.8966 27.9294 23.75C26.9134 25.6033 25.3457 27.0944 23.4438 28.0162C21.542 28.9381 19.4003 29.2451 17.316 28.8945C15.2318 28.5439 13.3084 27.5532 11.8128 26.0598C10.3171 24.5665 9.3235 22.6446 8.96975 20.5609C8.61601 18.4772 8.91971 16.335 9.8387 14.4317C10.7577 12.5285 12.2464 10.9585 14.0982 9.93972C15.9499 8.92094 18.0729 8.50389 20.1725 8.74647C20.3973 8.76733 20.6157 8.83285 20.8148 8.93921C21.014 9.04556 21.1899 9.19061 21.3323 9.36583C21.4747 9.54106 21.5807 9.74294 21.644 9.95966C21.7073 10.1764 21.7268 10.4035 21.7012 10.6279C21.6756 10.8522 21.6055 11.0691 21.4949 11.266C21.3844 11.4629 21.2357 11.6357 21.0575 11.7744C20.8793 11.913 20.6752 12.0147 20.4572 12.0735C20.2393 12.1322 20.0117 12.1469 19.788 12.1166C18.8372 12.0062 17.8739 12.0982 16.9613 12.3865C16.0486 12.6748 15.2073 13.153 14.4925 13.7896C13.7778 14.4261 13.2058 15.2067 12.8141 16.08C12.4224 16.9533 12.22 17.8996 12.22 18.8568Z" fill="#0F8B3A"/>
</svg>
