<svg width="52" height="29" viewBox="0 0 52 29" fill="none" xmlns="http://www.w3.org/2000/svg">
<path d="M50.9637 10.3331C50.7153 9.96968 50.2182 9.87693 49.8541 10.1241C47.9266 11.4412 45.9943 12.8439 44.1088 14.2959C43.8391 14.5048 43.3454 14.6663 43.1809 14.4299L36.641 4.90429C36.4703 4.65909 36.8261 4.25165 37.1006 4.08552C38.4961 3.2356 39.8836 2.35363 41.2244 1.46397C41.5921 1.22067 41.6923 0.724774 41.4486 0.35747C41.2045 -0.00983421 40.709 -0.111169 40.3417 0.133633C39.018 1.01161 37.6479 1.8819 36.2717 2.72014C35.8065 3.00198 35.4476 3.39434 35.2312 3.83523C31.1284 3.83523 22.8813 3.83523 15.8718 3.83523C15.6554 3.39444 15.2967 3.00228 14.8328 2.72094C13.4549 1.8819 12.0848 1.01171 10.7612 0.133633C10.3943 -0.111169 9.89876 -0.00983421 9.65425 0.35747C9.41055 0.724774 9.51079 1.22067 9.87839 1.46397C11.2192 2.35373 12.6068 3.2356 14.0038 4.08632C14.4941 4.38334 14.5352 4.80056 14.4623 4.9035L7.92206 14.43C7.75294 14.6729 7.25574 14.4974 6.99297 14.2952C5.10863 12.844 3.17636 11.4412 1.24879 10.1241C0.88498 9.87613 0.387487 9.96978 0.13919 10.3331C-0.109507 10.6972 -0.0159586 11.1947 0.348151 11.4435C2.25076 12.7426 4.15847 14.1274 6.01705 15.5591C7.17627 16.4566 8.59258 16.2736 9.23833 15.3346L9.57598 14.8428C9.95836 15.1914 10.3926 15.651 10.6076 16.0856C10.6996 16.2709 10.7706 16.4273 10.8627 16.6333C10.6673 16.786 10.4843 16.956 10.3328 17.1609C9.42393 18.389 9.68321 20.1272 10.9098 21.0348L11.0097 21.1089C11.0101 21.1097 11.0105 21.1097 11.0105 21.1097C11.5304 21.4949 12.1391 21.6953 12.9109 21.6232C12.9804 22.5266 13.4073 23.2198 14.0371 23.686H14.0375C14.6309 24.1254 15.3816 24.3342 16.1884 24.1989C16.2965 25.0162 16.716 25.6689 17.307 26.1064C17.9277 26.5661 18.6943 26.7741 19.5731 26.5904C19.6944 27.2289 20.0384 27.7927 20.5638 28.1805C21.5788 28.933 23.0111 28.8531 23.9447 27.8768C25.2969 28.6252 26.9302 28.1951 27.7677 26.9758C28.0416 26.5766 28.1897 26.1323 28.2453 25.682L28.6274 25.9543C29.9578 26.8681 31.7845 26.5286 32.6986 25.198C32.9746 24.7958 33.1228 24.3477 33.1768 23.8934C34.557 24.723 36.2476 24.2796 37.0937 23.0482C37.3649 22.6534 37.5183 22.2066 37.5743 21.7446L37.6143 21.7716C38.9394 22.683 40.7634 22.3578 41.6855 21.0153C42.5986 19.685 42.2591 17.8588 40.924 16.9418L40.801 16.8585L42.4382 15.8672C43.2733 16.3639 44.3225 16.15 45.0849 15.56C46.9447 14.1275 48.8524 12.7427 50.755 11.4436C51.1189 11.1948 51.2125 10.6973 50.9637 10.3331ZM11.9609 19.826L11.8611 19.7519C11.341 19.3667 11.2314 18.6306 11.6163 18.1105C12.0083 17.5817 12.7443 17.4857 13.2565 17.8649L13.3571 17.9397C13.7967 18.2653 13.9393 18.8406 13.7418 19.3251C13.6599 19.4382 13.4262 19.7608 13.4142 19.7779C13.0083 20.1204 12.4066 20.1563 11.9609 19.826ZM14.9872 22.4024C14.4753 22.023 14.32 21.303 14.6938 20.7341C14.8284 20.5865 15.3675 19.8207 15.622 19.469C16.0192 18.9329 16.7878 18.7953 17.35 19.2109C17.8978 19.6163 18.0136 20.3915 17.608 20.9389L16.7156 22.1444C16.3091 22.6926 15.5379 22.8083 14.9872 22.4024ZM18.2575 24.8228H18.2571C17.7084 24.4161 17.5934 23.6451 17.9976 23.0964C17.998 23.0958 17.9985 23.0954 17.999 23.0948C18.3821 22.5773 19.7701 20.7025 19.6853 20.8171C20.0939 20.2657 20.8677 20.1551 21.4133 20.559C21.9599 20.9641 22.0791 21.7358 21.6714 22.287L19.9851 24.5647C19.581 25.1098 18.8102 25.2318 18.2575 24.8228ZM23.1139 26.38L22.8819 26.6926C22.561 27.1262 21.9462 27.2174 21.5134 26.8969C21.513 26.8969 21.513 26.8969 21.5126 26.8969C21.0814 26.5779 20.9849 25.9667 21.3087 25.5284L21.5408 25.2149C21.863 24.7804 22.4746 24.6881 22.9096 25.0107C23.3435 25.332 23.4348 25.9457 23.1139 26.38ZM40.3686 20.1114C39.9695 20.6931 39.1507 20.8912 38.5139 20.4522C27.151 12.6771 31.0701 15.3587 30.2223 14.7786C29.8593 14.5275 29.3618 14.621 29.1123 14.9844C28.8624 15.3485 28.9547 15.8453 29.3186 16.0948L35.4335 20.2931C36.0311 20.7032 36.1995 21.5301 35.7774 22.1435C35.3621 22.7494 34.5329 22.903 33.927 22.4882L27.8116 18.2891C27.3904 17.9984 26.8617 18.2158 26.6302 18.5674C26.3865 18.9347 26.4871 19.4298 26.8547 19.6739L31.0375 22.4436C31.6422 22.8593 31.7965 23.6897 31.3817 24.294C30.9657 24.8992 30.1356 25.0527 29.5426 24.6457L25.6059 21.8393C25.2457 21.5835 24.7478 21.6662 24.492 22.0264C24.2362 22.3851 24.3197 22.8841 24.6788 23.1399C26.629 24.6252 25.9634 24.1228 26.107 24.2215C26.7117 24.6371 26.866 25.4667 26.4508 26.0719C26.0895 26.5984 25.395 26.8072 24.7896 26.5204C25.0839 25.5139 24.7506 24.3868 23.8596 23.7271C23.5729 23.5146 23.2514 23.3699 22.9145 23.2908L22.9547 23.2366C23.8876 21.977 23.6193 20.2046 22.3632 19.2753C21.4039 18.5644 20.1604 18.5576 19.2202 19.1218C19.0305 18.6626 18.7275 18.2438 18.2998 17.9271C17.357 17.2284 16.132 17.2025 15.179 17.7631C14.9915 17.3389 14.7067 16.9517 14.3082 16.6568L14.2076 16.5819C13.6684 16.1827 13.0163 16.0104 12.3553 16.0581C12.2312 15.7838 12.1595 15.6205 12.0383 15.3764C11.6662 14.6244 10.983 13.9437 10.488 13.5137L15.7788 5.80703C15.8596 5.68942 15.9217 5.56273 15.9722 5.43194H19.5864C17.879 6.41285 16.8189 8.23409 16.8189 10.2065V11.2015C16.8189 12.4976 18.0771 13.3994 19.2931 13.0175C20.1899 12.7384 20.9322 12.0833 21.4406 11.1235C21.944 10.1737 22.9237 9.5835 23.9983 9.5835C24.9683 9.5835 25.8549 10.0069 26.3703 10.7158C26.9642 11.5329 28.1186 12.5069 30.2469 12.5069C31.0836 12.5069 31.8923 12.7549 32.5859 13.2243L40.0241 18.2608C40.6291 18.6767 40.7835 19.5071 40.3686 20.1114ZM33.4813 11.902C32.5226 11.2533 31.404 10.9102 30.2472 10.9102C29.0783 10.9102 28.209 10.5289 27.6623 9.77719C26.8475 8.65591 25.4778 7.98679 23.9986 7.98679C22.3314 7.98679 20.8105 8.90221 20.0295 10.3768C19.7184 10.964 19.3114 11.3399 18.8189 11.4927C18.6211 11.5567 18.4161 11.4115 18.4161 11.2019V10.2069C18.4161 8.79009 19.185 7.48001 20.4225 6.78914L22.8538 5.43234C24.1381 5.43234 32.1124 5.43234 35.1305 5.43234C35.1811 5.56332 35.2433 5.69022 35.3243 5.80823L41.3858 14.637L39.3451 15.8725L33.4813 11.902Z" fill="black"/>
</svg>
