<svg width="70" height="70" viewBox="0 0 70 70" fill="none" xmlns="http://www.w3.org/2000/svg">
<ellipse cx="34.6216" cy="34.7528" rx="34.6216" ry="34.7528" fill="#EEF6E0"/>
<path d="M35.2823 33.0228C35.1073 33.0053 34.8973 33.0053 34.7048 33.0228C30.5399 32.8828 27.2324 29.4704 27.2324 25.2704C27.2324 20.9829 30.6974 17.5005 35.0023 17.5005C39.2898 17.5005 42.7723 20.9829 42.7723 25.2704C42.7548 29.4704 39.4473 32.8828 35.2823 33.0228Z" stroke="#0F8B3A" stroke-width="3.19307" stroke-linecap="round" stroke-linejoin="round"/>
<path d="M26.5317 39.4805C22.2967 42.3154 22.2967 46.9354 26.5317 49.7528C31.3441 52.9728 39.2365 52.9728 44.049 49.7528C48.2839 46.9179 48.2839 42.2979 44.049 39.4805C39.254 36.278 31.3616 36.278 26.5317 39.4805Z" stroke="#0F8B3A" stroke-width="3.19307" stroke-linecap="round" stroke-linejoin="round"/>
</svg>
