<svg width="36" height="36" viewBox="0 0 36 36" fill="none" xmlns="http://www.w3.org/2000/svg">
<path d="M1.32031 1.37109V6.97191C4.46216 7.36439 7.05198 8.72733 9.52276 10.2876L7.78252 11.6982L14.9391 15.3478L12.9746 7.48828L11.1532 8.96484C9.73109 6.15164 8.14534 3.49945 6.03793 1.37109H1.32031ZM20.8233 1.37109C19.7248 3.39363 18.7697 5.45808 17.8857 7.56956L15.7629 7.11914L17.5868 15.0117L22.302 8.50781L20.2213 8.06625C22.562 5.6231 24.9742 3.29955 27.8194 1.37109H20.8233ZM34.71 7.9695C32.039 8.14402 29.6447 9.35304 27.3251 10.8457L26.4483 8.55844L20.819 14.3833L28.8412 14.8008L27.9095 12.3706C30.1764 12.3049 32.4432 12.499 34.71 13.8735V7.9695ZM21.0673 16.9716C20.696 16.98 20.3494 17.1415 19.8763 17.6463L19.4149 18.1362L18.9358 17.6637C18.4164 17.1518 18.0066 17.0105 17.5911 17.0288C17.1757 17.0471 16.6873 17.2655 16.1409 17.7077L15.7037 18.0614L15.2885 17.6835C14.6627 17.1174 14.1294 16.9496 13.6185 16.976C13.2467 16.9952 12.8609 17.1353 12.476 17.3803L15.3565 22.5615C16.4431 23.226 18.6635 23.476 20.1905 22.7065L22.9745 17.5495C22.4464 17.3342 21.9718 17.1134 21.5616 17.0288C21.4131 16.998 21.2753 16.9756 21.1418 16.9716C21.117 16.971 21.0921 16.971 21.0673 16.9716ZM14.7413 23.735C13.4732 24.6309 12.455 26.1761 12.0606 28.4392C11.6785 30.6327 12.2806 32.1141 13.3461 33.1237C14.4117 34.1334 16.0111 34.6521 17.6351 34.631C19.2594 34.6099 20.8791 34.0467 21.9681 33.0183C23.0573 31.9899 23.6732 30.5274 23.3239 28.4348C22.9627 26.2722 22.0302 24.7681 20.8496 23.8579C18.847 24.9165 16.343 24.6915 14.7413 23.7348V23.735Z" fill="#77B900"/>
</svg>
