<svg width="34" height="34" viewBox="0 0 34 34" fill="none" xmlns="http://www.w3.org/2000/svg">
<g clip-path="url(#clip0_445_980)">
<path fill-rule="evenodd" clip-rule="evenodd" d="M7.29738 21.7335C6.70414 21.2033 6.34581 20.4592 6.30124 19.6648C6.25666 18.8704 6.52948 18.0908 7.05969 17.4975L16.389 7.05896C16.9192 6.46571 17.6634 6.10739 18.4578 6.06281C19.2522 6.01823 20.0317 6.29106 20.625 6.82126L26.5899 12.1523C27.1831 12.6825 27.5415 13.4267 27.586 14.2211C27.6306 15.0155 27.3578 15.795 26.8276 16.3883L17.4983 26.8269C16.9681 27.4201 16.2239 27.7784 15.4295 27.823C14.6351 27.8676 13.8555 27.5948 13.2623 27.0646L7.29738 21.7335ZM16.2773 17.6885C16.0795 17.5118 15.9601 17.2637 15.9452 16.9989C15.9303 16.7341 16.0213 16.4743 16.198 16.2765C16.3748 16.0788 16.6228 15.9593 16.8876 15.9445C17.1524 15.9296 17.4123 16.0206 17.61 16.1973C17.8078 16.374 17.9272 16.6221 17.9421 16.8869C17.9569 17.1517 17.866 17.4115 17.6892 17.6093C17.5125 17.807 17.2645 17.9265 16.9997 17.9413C16.7349 17.9562 16.475 17.8653 16.2773 17.6885ZM14.7068 14.9438C14.1766 15.537 13.9038 16.3166 13.9483 17.111C13.9929 17.9054 14.3512 18.6495 14.9445 19.1797C15.5377 19.7099 16.3173 19.9828 17.1117 19.9382C17.9061 19.8936 18.6503 19.5353 19.1805 18.942C19.7107 18.3488 19.9835 17.5692 19.9389 16.7748C19.8943 15.9804 19.536 15.2363 18.9428 14.7061C18.3495 14.1759 17.57 13.903 16.7756 13.9476C15.9812 13.9922 15.237 14.3505 14.7068 14.9438Z" fill="#ED8B00"/>
</g>
<defs>
<clipPath id="clip0_445_980">
<rect width="24" height="24" fill="white" transform="translate(0 17.8945) rotate(-48.2118)"/>
</clipPath>
</defs>
</svg>
