<svg width="43" height="31" viewBox="0 0 43 31" fill="none" xmlns="http://www.w3.org/2000/svg">
<path d="M11.0625 7.64062V1H1.29688C0.647461 1 0.125 1.52246 0.125 2.17188V24.8281C0.125 25.4775 0.647461 26 1.29688 26H17.7031C18.3525 26 18.875 25.4775 18.875 24.8281V8.8125H12.2344C11.5898 8.8125 11.0625 8.28516 11.0625 7.64062ZM18.875 6.95215V7.25H12.625V1H12.9229C13.2354 1 13.5332 1.12207 13.7529 1.3418L18.5332 6.12695C18.7529 6.34668 18.875 6.64453 18.875 6.95215Z" fill="white"/>
<path fill-rule="evenodd" clip-rule="evenodd" d="M18.5332 6.12695L13.7529 1.3418C13.7128 1.30163 13.67 1.26473 13.625 1.23125C13.4238 1.08152 13.1782 1 12.9229 1H12.625V7.25H18.875V6.95215C18.875 6.69873 18.7922 6.45194 18.6401 6.25C18.6076 6.20681 18.5719 6.16567 18.5332 6.12695ZM17.2426 6.25L13.625 2.62867V6.25H17.2426ZM1.29688 1C0.647461 1 0.125 1.52246 0.125 2.17188V24.8281C0.125 25.4775 0.647461 26 1.29688 26H17.7031C18.3525 26 18.875 25.4775 18.875 24.8281V8.8125H12.2344C11.5898 8.8125 11.0625 8.28516 11.0625 7.64062V1H1.29688ZM10.0625 2H1.29688C1.19975 2 1.125 2.07475 1.125 2.17188V24.8281C1.125 24.9253 1.19975 25 1.29688 25H17.7031C17.8003 25 17.875 24.9253 17.875 24.8281V9.8125H12.2344C11.0376 9.8125 10.0625 8.83744 10.0625 7.64062V2Z" fill="#989CA2"/>
<path fill-rule="evenodd" clip-rule="evenodd" d="M18.5332 6.12695L13.7529 1.3418C13.7128 1.30163 13.67 1.26473 13.625 1.23125C13.4238 1.08152 13.1782 1 12.9229 1H12.625V7.25H18.875V6.95215C18.875 6.69873 18.7922 6.45194 18.6401 6.25C18.6076 6.20681 18.5719 6.16567 18.5332 6.12695ZM17.2426 6.25L13.625 2.62867V6.25H17.2426ZM1.29688 1C0.647461 1 0.125 1.52246 0.125 2.17188V24.8281C0.125 25.4775 0.647461 26 1.29688 26H17.7031C18.3525 26 18.875 25.4775 18.875 24.8281V8.8125H12.2344C11.5898 8.8125 11.0625 8.28516 11.0625 7.64062V1H1.29688ZM10.0625 2H1.29688C1.19975 2 1.125 2.07475 1.125 2.17188V24.8281C1.125 24.9253 1.19975 25 1.29688 25H17.7031C17.8003 25 17.875 24.9253 17.875 24.8281V9.8125H12.2344C11.0376 9.8125 10.0625 8.83744 10.0625 7.64062V2Z" fill="#989CA2"/>
<path fill-rule="evenodd" clip-rule="evenodd" d="M18.5332 6.12695L13.7529 1.3418C13.7128 1.30163 13.67 1.26473 13.625 1.23125C13.4238 1.08152 13.1782 1 12.9229 1H12.625V7.25H18.875V6.95215C18.875 6.69873 18.7922 6.45194 18.6401 6.25C18.6076 6.20681 18.5719 6.16567 18.5332 6.12695ZM17.2426 6.25L13.625 2.62867V6.25H17.2426ZM1.29688 1C0.647461 1 0.125 1.52246 0.125 2.17188V24.8281C0.125 25.4775 0.647461 26 1.29688 26H17.7031C18.3525 26 18.875 25.4775 18.875 24.8281V8.8125H12.2344C11.5898 8.8125 11.0625 8.28516 11.0625 7.64062V1H1.29688ZM10.0625 2H1.29688C1.19975 2 1.125 2.07475 1.125 2.17188V24.8281C1.125 24.9253 1.19975 25 1.29688 25H17.7031C17.8003 25 17.875 24.9253 17.875 24.8281V9.8125H12.2344C11.0376 9.8125 10.0625 8.83744 10.0625 7.64062V2Z" fill="#989CA2"/>
<path d="M35.0625 6.64062V0H25.2969C24.6475 0 24.125 0.522461 24.125 1.17188V23.8281C24.125 24.4775 24.6475 25 25.2969 25H41.7031C42.3525 25 42.875 24.4775 42.875 23.8281V7.8125H36.2344C35.5898 7.8125 35.0625 7.28516 35.0625 6.64062ZM42.875 5.95215V6.25H36.625V0H36.9229C37.2354 0 37.5332 0.12207 37.7529 0.341797L42.5332 5.12695C42.7529 5.34668 42.875 5.64453 42.875 5.95215Z" fill="white"/>
<path fill-rule="evenodd" clip-rule="evenodd" d="M42.5332 5.12695L37.7529 0.341797C37.7128 0.301635 37.67 0.264735 37.625 0.231247C37.4238 0.0815239 37.1782 0 36.9229 0H36.625V6.25H42.875V5.95215C42.875 5.69873 42.7922 5.45194 42.6401 5.25C42.6076 5.20681 42.5719 5.16567 42.5332 5.12695ZM41.2426 5.25L37.625 1.62867V5.25H41.2426ZM25.2969 0C24.6475 0 24.125 0.522461 24.125 1.17188V23.8281C24.125 24.4775 24.6475 25 25.2969 25H41.7031C42.3525 25 42.875 24.4775 42.875 23.8281V7.8125H36.2344C35.5898 7.8125 35.0625 7.28516 35.0625 6.64062V0H25.2969ZM34.0625 1H25.2969C25.1997 1 25.125 1.07475 25.125 1.17188V23.8281C25.125 23.9253 25.1997 24 25.2969 24H41.7031C41.8003 24 41.875 23.9253 41.875 23.8281V8.8125H36.2344C35.0376 8.8125 34.0625 7.83744 34.0625 6.64062V1Z" fill="#989CA2"/>
<path fill-rule="evenodd" clip-rule="evenodd" d="M42.5332 5.12695L37.7529 0.341797C37.7128 0.301635 37.67 0.264735 37.625 0.231247C37.4238 0.0815239 37.1782 0 36.9229 0H36.625V6.25H42.875V5.95215C42.875 5.69873 42.7922 5.45194 42.6401 5.25C42.6076 5.20681 42.5719 5.16567 42.5332 5.12695ZM41.2426 5.25L37.625 1.62867V5.25H41.2426ZM25.2969 0C24.6475 0 24.125 0.522461 24.125 1.17188V23.8281C24.125 24.4775 24.6475 25 25.2969 25H41.7031C42.3525 25 42.875 24.4775 42.875 23.8281V7.8125H36.2344C35.5898 7.8125 35.0625 7.28516 35.0625 6.64062V0H25.2969ZM34.0625 1H25.2969C25.1997 1 25.125 1.07475 25.125 1.17188V23.8281C25.125 23.9253 25.1997 24 25.2969 24H41.7031C41.8003 24 41.875 23.9253 41.875 23.8281V8.8125H36.2344C35.0376 8.8125 34.0625 7.83744 34.0625 6.64062V1Z" fill="#989CA2"/>
<path fill-rule="evenodd" clip-rule="evenodd" d="M42.5332 5.12695L37.7529 0.341797C37.7128 0.301635 37.67 0.264735 37.625 0.231247C37.4238 0.0815239 37.1782 0 36.9229 0H36.625V6.25H42.875V5.95215C42.875 5.69873 42.7922 5.45194 42.6401 5.25C42.6076 5.20681 42.5719 5.16567 42.5332 5.12695ZM41.2426 5.25L37.625 1.62867V5.25H41.2426ZM25.2969 0C24.6475 0 24.125 0.522461 24.125 1.17188V23.8281C24.125 24.4775 24.6475 25 25.2969 25H41.7031C42.3525 25 42.875 24.4775 42.875 23.8281V7.8125H36.2344C35.5898 7.8125 35.0625 7.28516 35.0625 6.64062V0H25.2969ZM34.0625 1H25.2969C25.1997 1 25.125 1.07475 25.125 1.17188V23.8281C25.125 23.9253 25.1997 24 25.2969 24H41.7031C41.8003 24 41.875 23.9253 41.875 23.8281V8.8125H36.2344C35.0376 8.8125 34.0625 7.83744 34.0625 6.64062V1Z" fill="#989CA2"/>
<path d="M26.0625 12.6406V6H16.2969C15.6475 6 15.125 6.52246 15.125 7.17188V29.8281C15.125 30.4775 15.6475 31 16.2969 31H32.7031C33.3525 31 33.875 30.4775 33.875 29.8281V13.8125H27.2344C26.5898 13.8125 26.0625 13.2852 26.0625 12.6406ZM33.875 11.9521V12.25H27.625V6H27.9229C28.2354 6 28.5332 6.12207 28.7529 6.3418L33.5332 11.127C33.7529 11.3467 33.875 11.6445 33.875 11.9521Z" fill="white"/>
<path fill-rule="evenodd" clip-rule="evenodd" d="M33.5332 11.127L28.7529 6.3418C28.7128 6.30163 28.67 6.26473 28.625 6.23125C28.4238 6.08152 28.1782 6 27.9229 6H27.625V12.25H33.875V11.9521C33.875 11.6987 33.7922 11.4519 33.6401 11.25C33.6076 11.2068 33.5719 11.1657 33.5332 11.127ZM32.2426 11.25L28.625 7.62867V11.25H32.2426ZM16.2969 6C15.6475 6 15.125 6.52246 15.125 7.17188V29.8281C15.125 30.4775 15.6475 31 16.2969 31H32.7031C33.3525 31 33.875 30.4775 33.875 29.8281V13.8125H27.2344C26.5898 13.8125 26.0625 13.2852 26.0625 12.6406V6H16.2969ZM25.0625 7H16.2969C16.1997 7 16.125 7.07475 16.125 7.17188V29.8281C16.125 29.9253 16.1997 30 16.2969 30H32.7031C32.8003 30 32.875 29.9253 32.875 29.8281V14.8125H27.2344C26.0376 14.8125 25.0625 13.8374 25.0625 12.6406V7Z" fill="#989CA2"/>
<path fill-rule="evenodd" clip-rule="evenodd" d="M33.5332 11.127L28.7529 6.3418C28.7128 6.30163 28.67 6.26473 28.625 6.23125C28.4238 6.08152 28.1782 6 27.9229 6H27.625V12.25H33.875V11.9521C33.875 11.6987 33.7922 11.4519 33.6401 11.25C33.6076 11.2068 33.5719 11.1657 33.5332 11.127ZM32.2426 11.25L28.625 7.62867V11.25H32.2426ZM16.2969 6C15.6475 6 15.125 6.52246 15.125 7.17188V29.8281C15.125 30.4775 15.6475 31 16.2969 31H32.7031C33.3525 31 33.875 30.4775 33.875 29.8281V13.8125H27.2344C26.5898 13.8125 26.0625 13.2852 26.0625 12.6406V6H16.2969ZM25.0625 7H16.2969C16.1997 7 16.125 7.07475 16.125 7.17188V29.8281C16.125 29.9253 16.1997 30 16.2969 30H32.7031C32.8003 30 32.875 29.9253 32.875 29.8281V14.8125H27.2344C26.0376 14.8125 25.0625 13.8374 25.0625 12.6406V7Z" fill="#989CA2"/>
<path fill-rule="evenodd" clip-rule="evenodd" d="M33.5332 11.127L28.7529 6.3418C28.7128 6.30163 28.67 6.26473 28.625 6.23125C28.4238 6.08152 28.1782 6 27.9229 6H27.625V12.25H33.875V11.9521C33.875 11.6987 33.7922 11.4519 33.6401 11.25C33.6076 11.2068 33.5719 11.1657 33.5332 11.127ZM32.2426 11.25L28.625 7.62867V11.25H32.2426ZM16.2969 6C15.6475 6 15.125 6.52246 15.125 7.17188V29.8281C15.125 30.4775 15.6475 31 16.2969 31H32.7031C33.3525 31 33.875 30.4775 33.875 29.8281V13.8125H27.2344C26.5898 13.8125 26.0625 13.2852 26.0625 12.6406V6H16.2969ZM25.0625 7H16.2969C16.1997 7 16.125 7.07475 16.125 7.17188V29.8281C16.125 29.9253 16.1997 30 16.2969 30H32.7031C32.8003 30 32.875 29.9253 32.875 29.8281V14.8125H27.2344C26.0376 14.8125 25.0625 13.8374 25.0625 12.6406V7Z" fill="#989CA2"/>
</svg>
